<?xml version="1.0" encoding="UTF-8" standalone="no"?>
<!-- Created with Inkscape (http://www.inkscape.org/) -->

<svg
   width="200px"
   height="200px"
   viewBox="0 0 200 200"
   version="1.1"
   id="SVGRoot"
   xmlns="http://www.w3.org/2000/svg"
   xmlns:svg="http://www.w3.org/2000/svg">
  <defs
     id="defs1124" />
  <g
     id="layer1">
    <g
       id="g1626"
       transform="matrix(1.1846443,0,0,1.1846443,-16.419715,-35.049457)">
      <g
         id="g1936"
         transform="matrix(0.16080115,0,0,0.16080115,16.228818,32.580002)">
        <path
           class="cls-1"
           d="m 510.0591,668.33428 c 18.45519,-50.64985 36.71536,-101.3706 55.54286,-151.86088 4.09524,-10.99157 1.77283,-21.274 0,-31.911 -7.67638,-41.89204 -28.80854,-76.79913 -57.10296,-107.82371 a 305.77825,305.77825 0 0 0 -51.07532,-44.32083 c 8.52732,-15.01589 16.27461,-30.45727 25.65289,-44.83494 31.911,-49.03656 74.01578,-87.75524 123.14099,-119.13439 63.82198,-40.77515 131.91651,-71.533817 205.79047,-88.978484 A 495.80823,495.80823 0 0 1 916.60518,65.553305 c 12.94165,-0.248196 25.90111,0 39.00233,0 0,0.939599 0.19506,1.524637 0,1.879197 -23.04684,38.275468 -36.59128,80.078868 -44.49812,123.619658 -7.44589,41.04108 -13.11896,82.40128 -19.25297,123.65511 -6.7013,45.26042 -14.07629,90.41449 -29.96087,133.51205 -34.97801,94.9884 -102.38112,153.54507 -200.33014,177.38968 a 243.03769,243.03769 0 0 1 -76.23182,5.86808 c -0.81551,0 -1.63101,0 -2.85427,0 v 69.35323 a 61.60595,61.60595 0 0 0 -15.26409,24.14599 q -0.17728,-44.32083 -0.17728,-88.78349 a 10.849739,10.849739 0 0 0 -1.09916,-5.61988 l -30.81184,84.24503 -6.73676,-1.77283 -3.93569,-1.15235 c -0.63823,-1.47145 -1.27644,-2.92517 -2.03876,-4.73346 l 10.31789,2.6238 c 8.29686,-22.69226 16.73555,-44.85268 24.50055,-67.24356 15.19318,-43.85989 30.33318,-87.75524 49.32022,-130.14368 11.96662,-26.5925 24.53601,-53.09635 37.93863,-79.06835 a 1328.8979,1328.8979 0 0 1 190.24272,-276.72152 38.647761,38.647761 0 0 0 2.34013,-3.24429 l -0.95733,-0.83323 c -1.48918,1.17008 -2.99608,2.34014 -4.46753,3.54567 A 781.09252,781.09252 0 0 0 724.28825,265.81253 c -48.69974,60.27632 -89.4217,125.67614 -125.87116,193.82384 -10.33561,19.28843 -20.93715,38.63003 -29.05673,58.87579 -14.00539,34.94254 -26.18474,70.61193 -39.12642,105.96222 l -19.50117,53.34455 -2.48197,-5.67306 c 0.58503,-1.24098 1.20553,-2.53515 1.8083,-3.81159 z"
           id="path8"
           style="fill:#179048;stroke-width:1.77283" />
        <path
           class="cls-2"
           d="m 524.38358,711.9637 3.93569,1.15235 c 8.08412,19.62526 16.18597,39.23279 24.41192,59.17716 l -29.4645,17.03693 C 503.99601,743.23647 484.88486,697.49738 465.77372,651.75828 l -0.90415,0.12411 V 800.17988 H 449.58776 V 652.68016 C 437.8516,651.88239 426.54092,652.00648 415.44299,650.1982 343.12913,638.35568 292.83385,598.89241 266.52501,529.94693 256.7567,504.32949 251.8814,477.50652 247.57342,450.54174 241.70535,413.95046 236.29821,377.27054 229.45507,340.85655 a 205.95002,205.95002 0 0 0 -25.67062,-66.71171 23.596408,23.596408 0 0 1 -0.99279,-2.25149 c 11.62979,0 22.88728,-0.6205 34.0384,0.10635 85.30872,5.54896 160.81369,37.03448 228.11043,88.64165 32.7265,25.05013 58.5035,56.42927 73.73212,95.1834 21.14991,53.7523 14.99818,104.36669 -20.4053,150.53126 -6.09855,7.9423 -14.46632,14.18267 -21.66402,21.274 -1.13462,1.11689 -2.60607,3.3152 -2.19831,4.30798 5.03485,12.23256 10.38879,24.34101 15.65412,36.48491 l -1.77284,3.8825 c -0.85096,-1.59555 -1.77283,-3.13791 -2.53515,-4.78665 C 499.54619,653.33609 493.92631,639.0116 487.1009,625.20123 470.36536,591.25147 453.86028,557.14217 435.86602,523.84836 406.54336,469.58194 372.48724,418.41798 329.6556,373.6894 315.79204,359.20535 300.42158,346.17503 285.74252,332.47103 l -1.08142,-0.90414 -1.77284,-0.79778 c 0.37229,0.47866 0.74459,0.97506 1.13461,1.45372 l 0.78005,0.9396 c 1.04597,1.27644 2.05649,2.60607 3.15565,3.84705 A 878.882,878.882 0 0 1 430.5298,557.15989 c 13.50899,29.94315 24.73102,60.91455 37.22949,91.31863 16.0796,39.00233 32.42513,77.82737 48.66427,116.74106 2.65925,6.3822 5.3185,12.74667 8.29687,19.60754 L 548.7423,770.92811 Z M 280.44175,328.624 h 0.78004 -0.86868 v -0.28364 z"
           id="path10"
           style="fill:#8ec442;stroke-width:1.77283" />
        <path
           class="cls-3"
           d="m 567.21523,724.9763 a 61.60595,61.60595 0 0 1 15.06908,-24.19918 c 19.64299,-16.80645 47.54739,-14.34222 62.04916,-3.36838 12.40983,9.34283 20.05074,21.07898 19.83801,37.53088 -0.40776,28.95037 -0.12411,57.90073 0,86.86881 0.12409,28.9681 0.51412,57.86528 0.74459,86.86883 0.10635,13.17214 9.60875,22.95819 22.83408,23.04683 13.22534,0.0887 26.94707,0 40.42059,0 h 5.3185 v 15.51229 c -18.22472,-0.54958 -36.41399,0 -54.30187,-1.96784 -17.51559,-1.96784 -28.15259,-16.25689 -28.06395,-33.89657 0.30138,-56.23426 0.10635,-112.46854 1.27644,-168.68507 0.31911,-15.10454 -6.66585,-24.4651 -17.12557,-32.58467 a 32.549216,32.549216 0 0 0 -39.85328,0.44321 64.672951,64.672951 0 0 0 -11.41705,11.7716 16.363249,16.363249 0 0 0 -2.83653,9.20101 c -0.19501,23.29503 0,46.59005 0,69.86735 0,0.65595 -0.10636,1.29417 -0.19501,2.21604 h -15.47684 q 0.86869,-39.32144 1.71965,-78.62514 z"
           id="path12"
           style="fill:#90c544;stroke-width:1.77283" />
        <path
           class="cls-4"
           d="m 363.05577,731.03939 c 8.08412,0 15.56548,0.47866 22.9582,-0.10635 15.54774,-1.24099 28.9149,-11.1334 32.33647,-24.12826 5.92126,-22.51498 -8.03094,-42.21115 -32.79742,-43.45213 -12.09072,-0.60277 -24.25236,-0.10636 -36.8572,-0.10636 v 136.86267 h -15.9555 V 648.97494 h 5.70853 c 15.79594,0 31.60962,-0.0886 47.42328,0.0887 21.66402,0.2482 41.02336,12.79985 47.22828,31.30823 10.95611,32.76196 -11.00929,61.02092 -37.72588,63.04195 -1.15235,0 -2.28696,0.39002 -4.1839,0.72686 l 20.52941,27.67392 21.274,28.5958 c -6.55948,0 -12.23255,0.0886 -17.90562,-0.0887 a 4.4852677,4.4852677 0 0 1 -2.67698,-1.95012 q -24.42963,-32.51375 -48.68199,-65.11615 a 13.863554,13.863554 0 0 1 -0.67368,-2.21604 z"
           id="path14"
           style="fill:#199049;stroke-width:1.77283" />
        <path
           class="cls-5"
           d="m 971.08435,834.04099 -36.43171,48.20333 c -6.45309,8.56278 -6.52403,8.6337 0.23046,16.80646 10.92067,13.2076 21.94769,26.30884 32.93918,39.44554 l 6.80767,8.19048 c -7.09131,0 -13.0657,0.21274 -19.05785,-0.17728 -1.36515,0 -2.71243,-2.21604 -3.84712,-3.54567 q -14.94496,-18.02971 -29.83675,-36.16579 c -1.04598,-1.25871 -2.19833,-2.42878 -3.54567,-3.88251 -5.54897,7.09133 -10.97385,13.704 -16.15051,20.56487 a 9.165547,9.165547 0 0 0 -1.43601,5.01711 c -0.15955,5.939 0,11.89571 0,18.06518 H 884.62326 V 794.98548 h 15.53003 v 105.50129 c 1.77283,-1.77283 2.58833,-2.60607 3.3152,-3.54567 15.28181,-19.7139 30.61686,-39.39235 45.73911,-59.21262 a 7.8181939,7.8181939 0 0 1 7.41037,-3.70522 c 4.43217,0.23047 8.89964,0.0178 14.46638,0.0178 z"
           id="path16"
           style="fill:#8fc443;stroke-width:1.77283" />
        <path
           class="cls-6"
           d="m 784.44047,946.58044 h -15.10454 c -0.0886,-1.50691 -0.26593,-2.94291 -0.26593,-4.39663 0,-20.28122 -0.28364,-40.58015 0,-60.86136 0.28366,-20.28122 9.07692,-35.93533 27.46119,-44.5513 18.38428,-8.61597 36.96356,-7.1977 53.53956,5.53124 a 44.551296,44.551296 0 0 1 18.34882,34.58797 c 0.70913,23.04683 0.19501,46.09366 0.19501,69.56597 h -14.90953 v -5.3185 c 0,-19.62526 0.10635,-39.25053 0,-58.87578 -0.12409,-21.43355 -16.8951,-36.99902 -38.06272,-35.45667 -16.82418,1.15235 -31.02458,16.46962 -31.11322,33.77248 -0.0886,20.12165 0,40.24331 0,60.36496 z"
           id="path18"
           style="fill:#8fc543;stroke-width:1.77283" />
        <path
           class="cls-4"
           d="m 128.45677,663.10443 c -14.18267,0 -27.92213,0.49639 -41.679307,-0.10636 -18.667931,-0.83323 -26.592499,11.39932 -25.901097,25.86564 0.443217,8.77552 0,17.60423 0,26.94706 h 50.543474 v 14.8918 H 61.053657 V 800.1799 H 45.825018 V 687.90637 c 0,-24.81965 14.058562,-38.89595 39.002332,-39.00232 h 43.62942 z"
           id="path20"
           style="fill:#199049;stroke-width:1.77283" />
        <path
           class="cls-7"
           d="M 753.34498,946.58044 H 738.63046 V 834.43101 h 14.71452 z"
           id="path22"
           style="fill:#90c545;stroke-width:1.77283" />
        <path
           class="cls-7"
           d="m 195.52305,726.16409 v 78.46559 h -14.55496 v -78.39467 z"
           id="path24"
           style="fill:#90c545;stroke-width:1.77283" />
        <path
           class="cls-8"
           d="m 152.78004,713.55925 28.87945,1.47145 h 60.95 a 15.955497,15.955497 0 0 0 4.57391,1.27644 24.039617,24.039617 0 0 0 5.44259,-1.29417 l 4.98167,-0.88641 h 5.4426 c 17.17875,0 34.33977,-0.10635 51.51852,0 0.92188,0 1.77284,1.77284 2.73018,2.80108 -1.06371,5.65533 -5.3185,3.90023 -8.86417,3.35065 l 6.08082,-0.53186 v 0.19502 h -93.78287 l 2.85425,-1.5069 c -4.59163,-0.30139 -9.00599,0.76232 -13.42034,0.74459 -8.17276,0 -16.34553,-0.76232 -24.50055,-1.18781 v 0 l -10.01651,-1.02824 -1.29417,0.44321 c 0.10635,0.10635 0.24819,0.35456 0.26592,0.33683 0.3723,-0.21273 0.72686,-0.46093 1.09916,-0.6914 l 4.07752,0.17728 v 1.91467 l -15.9555,-1.09916 h 5.85035 v -1.24098 l -14.7677,-1.02825 v 0.63823 l 7.87138,1.57781 v 0 l -4.98166,1.01051 v 0 h -2.94291 l -3.24428,0.92189 z m 90.71587,5.3185 -0.10635,-0.47866 h -4.68027 v 0.47866 z m 29.39357,-0.86869 -0.40775,0.79778 h 5.10576 v -0.53186 z"
           id="path26"
           style="fill:#957b50;stroke-width:1.77283" />
        <path
           class="cls-9"
           d="m 252.60828,715.01297 a 24.039617,24.039617 0 0 1 -5.44261,1.29417 15.955497,15.955497 0 0 1 -4.57391,-1.27644 l 1.01052,-0.92187 a 0.58503491,0.58503491 0 0 1 0.72686,-0.0886 l 3.38611,-0.26592 c -2.55288,-3.91796 -4.78665,-7.39272 -7.09133,-10.81428 l -28.75535,-43.04439 8.86417,-4.52073 34.49932,53.64594 c -3.7584,0.72686 -2.48196,3.68749 -2.62378,5.99217 z m -3.97116,-5.03484 -0.49639,-0.37229 0.3723,0.49639 2.09193,0.85095 0.19502,-0.67367 z"
           id="path28"
           style="fill:#8a6f43;stroke-width:1.77283" />
        <path
           class="cls-2"
           d="m 674.87938,698.0115 h -12.40983 v -45.72136 h 12.40983 z"
           id="path30"
           style="fill:#8ec442;stroke-width:1.77283" />
        <path
           class="cls-10"
           d="m 274.52049,724.12534 -7.99548,0.93959 45.77455,67.86406 -6.68358,3.29747 -7.60545,-13.18988 2.35787,-2.05649 c -1.0637,-1.20552 -2.02103,-3.3152 -3.22657,-3.45702 -3.43929,-0.42549 -4.32571,-2.88972 -5.7617,-5.3185 -1.27644,-2.09194 -3.17337,-3.77613 -4.66255,-5.74399 a 16.274608,16.274608 0 0 1 -1.77283,-3.26201 c -0.88642,-1.96784 -1.52464,-4.05979 -2.58834,-5.90352 -3.15565,-5.49578 -10.637,-8.50961 -9.64421,-16.43417 0,-0.31911 -0.6205,-1.02824 -0.95733,-1.02824 -5.01711,-0.12411 -3.54567,-4.09525 -4.18389,-6.86087 l 0.10635,-1.09916 c -0.95733,-1.11688 -1.77283,-2.30467 -2.90745,-3.31519 -1.32962,-1.25872 -2.78335,-2.39333 -4.18388,-3.54566 z"
           id="path32"
           style="fill:#947952;stroke-width:1.77283" />
        <path
           class="cls-11"
           d="m 267.55325,733.02496 c 0.56731,2.76562 -0.83322,6.73676 4.18389,6.86087 0.33684,0 0.99279,0.70913 0.95733,1.02824 -0.90414,7.92456 6.48856,10.93837 9.64421,16.43416 1.06371,1.77284 1.77284,3.93569 2.58834,5.90353 a 16.274608,16.274608 0 0 0 1.77284,3.26201 c 1.48917,1.96784 3.3861,3.65204 4.66254,5.74399 1.43599,2.37559 2.32241,4.83982 5.76171,5.3185 1.20553,0.14182 2.16286,2.2515 3.22656,3.45702 l -2.35787,2.05649 7.60545,13.18987 -2.76561,1.6842 -19.25297,-28.36534 -2.16286,-3.54566 0.1241,0.10635 c -0.35457,-0.3723 -0.69141,-0.76232 -1.02825,-1.13462 v 0 l -2.05649,-3.04927 v 0 l -2.07421,-3.03155 v 0 l -2.07421,-3.03154 v 0 l -2.09194,-3.04928 v 0 l -5.3185,-7.71181 -0.17728,-0.14184 -1.59556,-2.19831 v 0 l -2.09194,-3.01381 v 0 l -6.9495,-14.82088 h 4.48526 c 1.40055,1.17006 2.85427,2.30468 4.18389,3.54566 1.04597,1.01052 1.95012,2.19831 2.90744,3.3152 l -0.17728,0.17728 v 0.92187 z"
           id="path34"
           style="fill:#80663b;stroke-width:1.77283" />
        <path
           class="cls-7"
           d="m 753.53999,820.70929 h -14.82088 v -25.54653 h 14.82088 z"
           id="path36"
           style="fill:#90c545;stroke-width:1.77283" />
        <path
           class="cls-12"
           d="m 260.56829,724.9763 h -4.48526 l 7.33953,15.13999 c -2.97836,-4.14843 -5.76171,-8.45642 -8.98827,-12.40983 a 7.7472806,7.7472806 0 0 0 -5.14121,-2.80108 c -17.92334,0.21274 -35.84669,0.72686 -53.77003,1.15234 h -14.55496 l -28.2235,0.69141 c 0,-1.20553 0,-2.41106 -0.0887,-3.54566 h 138.83057 a 5.4603259,5.4603259 0 0 1 0,0.76231 l -17.05466,0.2482 z"
           id="path38"
           style="fill:#493a28;stroke-width:1.77283" />
        <path
           class="cls-13"
           d="m 150.6881,738.02435 q 1.0637,12.40983 2.10967,24.97921 l -15.58321,-9.37828 c -0.49639,1.77283 -0.9396,3.54566 -1.3828,5.21213 -0.3723,-8.19049 -0.83324,-16.38097 -1.0637,-24.5892 a 34.871627,34.871627 0 0 1 0.92187,-6.25809 v 13.91674 z"
           id="path40"
           style="fill:#464552;stroke-width:1.77283" />
        <path
           class="cls-14"
           d="m 177.01467,664.0263 11.47022,-8.08412 12.40984,10.22924 -21.22081,16.96601 c -0.30139,-5.05257 -0.47867,-10.12288 -0.95733,-15.17545 a 13.367162,13.367162 0 0 0 -1.70192,-3.93568 z"
           id="path42"
           style="fill:#464453;stroke-width:1.77283" />
        <path
           class="cls-15"
           d="m 150.6881,738.02435 -14.99817,3.88251 v -13.91674 c 0.49639,-1.34736 0.99278,-2.69472 1.47145,-4.04206 h 0.40775 l 0.39002,-0.0887 9.66195,4.13071 z"
           id="path44"
           style="fill:#32314b;stroke-width:1.77283" />
        <path
           class="cls-15"
           d="m 200.82382,666.17142 -12.40983,-10.22924 v 0 l 1.20552,-0.88643 13.20761,-6.63038 2.76562,2.37559 0.10635,8.52733 z"
           id="path46"
           style="fill:#32314b;stroke-width:1.77283" />
        <path
           class="cls-16"
           d="m 211.86857,659.89559 28.77308,43.04439 c 2.28695,3.42156 4.52072,6.89633 7.09133,10.81428 l -3.38611,0.26593 c -5.53124,-8.35005 -11.02702,-16.75328 -16.61145,-25.06787 -5.58442,-8.31458 -11.31067,-16.57598 -16.96601,-24.81965 z"
           id="path48"
           style="fill:#503c28;stroke-width:1.77283" />
        <path
           class="cls-17"
           d="m 135.83176,758.83741 c 0.4432,-1.77283 0.88641,-3.38611 1.3828,-5.21213 l 15.58321,9.37828 1.27644,8.2614 -1.36508,0.90415 z"
           id="path50"
           style="fill:#9b9b9c;stroke-width:1.77283" />
        <path
           class="cls-18"
           d="m 177.01467,664.0263 a 13.367162,13.367162 0 0 1 1.77283,3.93568 c 0.47867,5.05257 0.65595,10.12288 0.95733,15.17545 l -6.98496,5.58443 c 0,-6.89633 -0.35457,-12.83531 0.19501,-18.68566 0.14182,-2.10968 2.57061,-4.02433 4.05979,-6.0099 z"
           id="path52"
           style="fill:#9d9e9e;stroke-width:1.77283" />
        <path
           class="cls-19"
           d="m 211.86857,659.89559 -1.17008,4.18389 -4.98166,-4.69801 -0.10635,-8.52733 10.1406,-2.10967 4.91075,6.55948 z"
           id="path54"
           style="fill:#252630;stroke-width:1.77283" />
        <path
           class="cls-20"
           d="m 291.4865,723.87714 a 5.4603259,5.4603259 0 0 0 0,-0.76232 h 25.79473 v -6.134 c -0.90415,-0.97506 -1.77284,-2.80108 -2.73018,-2.80108 -17.17875,-0.14182 -34.33977,0 -51.51852,0 h -5.4426 v -1.25871 a 33.825655,33.825655 0 0 0 5.3185,0.74459 c 17.72834,-0.15955 35.58076,-0.30138 53.36228,-0.69141 3.8825,-0.0886 4.503,1.77284 4.29026,4.85757 -0.21275,3.08473 0.67367,6.2581 -4.16617,6.16946 -8.19048,-0.19502 -16.59371,-0.10635 -24.9083,-0.1241 z"
           id="path56"
           style="fill:#63574b;stroke-width:1.77283" />
        <path
           class="cls-21"
           d="m 152.78004,713.55925 c -0.44321,2.14512 -0.86869,4.29026 -1.29417,6.43538 -0.23046,0.95734 -0.47866,1.91467 -0.70913,2.87199 h -9.14782 l 3.84705,-9.14782 z"
           id="path58"
           style="fill:#31323c;stroke-width:1.77283" />
        <path
           class="cls-22"
           d="m 243.60228,714.10883 -1.01052,0.92187 h -60.93227 a 6.5417541,6.5417541 0 0 1 2.10967,-0.83323 q 29.92543,-0.0709 59.83312,-0.0886 z"
           id="path60"
           style="fill:#726047;stroke-width:1.77283" />
        <path
           class="cls-23"
           d="m 215.75107,648.74447 -10.1406,1.98558 -2.76562,-2.3756 11.39931,-4.92848 c 0.60277,2.1274 1.04597,3.75842 1.50691,5.3185 z"
           id="path62"
           style="fill:#8c7450;stroke-width:1.77283" />
        <path
           class="cls-23"
           d="m 145.47597,713.66562 -3.91796,9.14782 -3.54567,1.09916 -0.39002,0.0887 h -0.40776 c 0.19502,-1.89694 0.2482,-3.79386 0.60277,-5.65534 a 56.730659,56.730659 0 0 1 1.59555,-5.51351 z"
           id="path64"
           style="fill:#8c7450;stroke-width:1.77283" />
        <path
           class="cls-24"
           d="m 138.01234,723.9126 3.66977,-1.09916 h 9.14781 l 1.87921,0.28365 c 0,1.22325 0,2.42879 0.0886,3.54567 l -5.12349,1.25871 z"
           id="path66"
           style="fill:#171314;stroke-width:1.77283" />
        <path
           class="cls-25"
           d="m 302.76172,797.91065 2.76562,-1.68419 6.68358,-3.29747 c -0.1241,5.44259 -3.70523,7.3218 -9.4492,4.98166 z"
           id="path68"
           style="fill:#5b4a3c;stroke-width:1.77283" />
        <path
           class="cls-22"
           d="m 257.64312,712.86785 v 1.25871 l -4.98167,0.88641 c 0.14184,-2.30468 -1.20552,-5.3185 2.6238,-5.95671 z"
           id="path70"
           style="fill:#726047;stroke-width:1.77283" />
        <path
           class="cls-12"
           d="m 267.16323,745.45252 5.3185,7.71182 z"
           id="path72"
           style="fill:#493a28;stroke-width:1.77283" />
      </g>
    </g>
  </g>
</svg>
